<svg xmlns:xlink="http://www.w3.org/1999/xlink" xmlns="http://www.w3.org/2000/svg" viewBox="0 0 24 24" id="loading-x-anim-3" aria-hidden="true" class="r-1p0dtai r-13gxpu9 r-4qtqp9 r-yyyyoo r-wy61xf r-1d2f490 r-1upz40 r-ywje51 r-dnmrzs r-u8s1d r-zchlnj r-1plcrui r-ipm5af r-lrvibr r-1blnp2b" width="50"  height="72" ><g fill="#FBFBFE"><path d="M18.244 2.25h3.308l-7.227 8.26 8.502 11.24H16.17l-5.214-6.817L4.99 21.75H1.68l7.73-8.835L1.254 2.25H8.08l4.713 6.231zm-1.161 17.52h1.833L7.084 4.126H5.117z" fill="#FBFBFE"></path><path d="M 10,30 C 168,206 62,95 121,234 h 183 s 188,224 247,80 C 193,75 15,176 47,184 h 3 s 220,215 200,128 C 232,28 31,171 154,197 h 215 s 134,181 184,41 C 70,91 62,203 90,122 h 149 s 208,229 53,41 C 68,93 207,222 141,224 h 243 s 159,78 14,56 C 176,1 54,245 228,103 h 214 s 148,224 46,249 C 132,179 213,129 222,140 h 208 s 192,37 228,197 C 4,127 28,9 118,107 h 67 s 221,66 195,179 C 217,64 241,29 210,12 h 65 s 91,225 118,142 C 215,161 67,102 125,143 h 179 s 6,32 94,140 C 136,186 221,4 134,193 h 20 s 181,204 59,150 C 219,51 223,4 7,110 h 121 s 19,224 180,117 C 241,143 69,51 217,46 h 167 s 248,163 214,82 C 163,39 151,25 155,120 h 122 s 22,230 95,68 C 68,100 46,25 227,100 h 86 s 80,254 201,248 C 138,163 61,174 133,210 h 98 s 186,181 63,43" fill="#1D9BF0" fill-opacity="0.03"></path></g></svg>